<?xml version="1.0" encoding="utf-8"?>
<!-- Generator: Adobe Illustrator 21.0.2, SVG Export Plug-In . SVG Version: 6.00 Build 0)  -->
<svg version="1.1" id="main" xmlns="http://www.w3.org/2000/svg" xmlns:xlink="http://www.w3.org/1999/xlink" x="0px" y="0px"
	 width="22.9px" height="19px" viewBox="0 0 22.9 19" style="enable-background:new 0 0 22.9 19;" xml:space="preserve">
<g id="fg">
	<path d="M17.3,19H1.7C0.8,19,0,18.2,0,17.3c0,0,0,0,0,0V5.8c0-0.9,0.8-1.7,1.7-1.7h0h15.6c0.9,0,1.7,0.8,1.7,1.7c0,0,0,0,0,0v11.5
		C19,18.2,18.2,19,17.3,19L17.3,19z M1.7,5C1.3,5,0.9,5.4,0.9,5.8l0,0v11.5c0,0.4,0.4,0.8,0.8,0.8h15.6c0.4,0,0.8-0.4,0.8-0.8V5.8
		c0-0.4-0.4-0.8-0.8-0.8H1.7z"/>
	<path d="M21.2,15H5.6c-0.9,0-1.7-0.8-1.7-1.7l0,0V1.7C3.9,0.8,4.7,0,5.6,0c0,0,0,0,0,0h15.6c0.9,0,1.7,0.8,1.7,1.7c0,0,0,0,0,0
		v11.5c0.1,0.9-0.7,1.7-1.6,1.8C21.3,15,21.2,15,21.2,15z M5.6,0.9c-0.4,0-0.8,0.4-0.8,0.8l0,0v11.5c0,0.4,0.4,0.8,0.8,0.8
		c0,0,0,0,0,0h15.6c0.4,0,0.8-0.4,0.8-0.8V1.7c0-0.4-0.4-0.8-0.8-0.8L5.6,0.9z"/>
</g>
</svg>
